<?xml version="1.0" encoding="UTF-8"?>
<svg width="128" height="128" viewBox="0 0 128 128" fill="none" xmlns="http://www.w3.org/2000/svg">
    <path d="M126 64C126 80.4183 110.418 96 94 96C77.5817 96 62 80.4183 62 64C62 47.5817 77.5817 32 94 32C110.418 32 126 47.5817 126 64ZM94 128C97.3137 128 100 125.314 100 122C100 118.686 97.3137 116 94 116C90.6863 116 88 118.686 88 122C88 125.314 90.6863 128 94 128Z" fill="#4CAF50"/>
    <path d="M94 0C97.3137 0 100 3.31371 100 6.68629C100 10.3137 97.3137 13.3137 94 13.3137C90.6863 13.3137 88 10.3137 88 6.68629C88 3.31371 90.6863 0 94 0Z" fill="white"/>
</svg>
