<?xml version="1.0" encoding="UTF-8"?>
<svg width="48" height="48" viewBox="0 0 48 48" fill="none" xmlns="http://www.w3.org/2000/svg">
    <path d="M46 24C46 30.4183 40.4183 36 34 36C27.5817 36 22 30.4183 22 24C22 17.5817 27.5817 12 34 12C40.4183 12 46 17.5817 46 24ZM34 44C37.3137 44 40 41.3137 40 38C40 34.6863 37.3137 32 34 32C30.6863 32 30 34.6863 30 38C30 41.3137 32.6863 44 34 44Z" fill="#4CAF50"/>
    <path d="M34 8C37.3137 8 40 11.3137 40 14C40 17.3137 37.3137 20 34 20C30.6863 20 30 17.3137 30 14C30 10.6863 32.6863 8 34 8Z" fill="white"/>
</svg>
