<?xml version="1.0" encoding="UTF-8"?>
<svg width="16" height="16" viewBox="0 0 16 16" fill="none" xmlns="http://www.w3.org/2000/svg">
    <path d="M14 8C14 12.4183 10.4183 16 6 16C1.58172 16 0 12.4183 0 8C0 3.58172 1.58172 0 6 0C10.4183 0 14 3.58172 14 8ZM6 14C9.31371 14 12 11.3137 12 8C12 4.68629 9.31371 2 6 2C2.68629 2 0 4.68629 0 8C0 11.3137 2.68629 14 6 14Z" fill="#4CAF50"/>
    <path d="M10 8C10 11.3137 7.31371 14 4 14C0.686294 14 0 11.3137 0 8C0 4.68629 0.686294 2 4 2C7.31371 2 10 4.68629 10 8Z" fill="white"/>
</svg>
